<mxfile host="app.diagrams.net" agent="Mozilla/5.0 (Windows NT 10.0; Win64; x64) AppleWebKit/537.36 (KHTML, like Gecko) Chrome/140.0.0.0 Safari/537.36" version="28.2.1">
  <diagram name="PÃ¡gina-1" id="de4jMEReoUD2sHiQdrQo">
    <mxGraphModel dx="1114" dy="494" grid="1" gridSize="10" guides="1" tooltips="1" connect="1" arrows="1" fold="1" page="1" pageScale="1" pageWidth="827" pageHeight="1169" math="0" shadow="0">
      <root>
        <mxCell id="0" />
        <mxCell id="1" parent="0" />
        <mxCell id="VX4P6CgoQtY3rM74bWKP-1" value="SubjectController" style="swimlane;fontStyle=1;align=center;verticalAlign=top;childLayout=stackLayout;horizontal=1;startSize=33.142857142857146;horizontalStack=0;resizeParent=1;resizeParentMax=0;resizeLast=0;collapsible=0;marginBottom=0;" vertex="1" parent="1">
          <mxGeometry x="274" y="20" width="404" height="239.14285714285714" as="geometry" />
        </mxCell>
        <mxCell id="VX4P6CgoQtY3rM74bWKP-2" value="-subjectService: SubjectService" style="text;strokeColor=none;fillColor=none;align=left;verticalAlign=top;spacingLeft=4;spacingRight=4;overflow=hidden;rotatable=0;points=[[0,0.5],[1,0.5]];portConstraint=eastwest;" vertex="1" parent="VX4P6CgoQtY3rM74bWKP-1">
          <mxGeometry y="33.142857142857146" width="404" height="33" as="geometry" />
        </mxCell>
        <mxCell id="VX4P6CgoQtY3rM74bWKP-3" style="line;strokeWidth=1;fillColor=none;align=left;verticalAlign=middle;spacingTop=-1;spacingLeft=3;spacingRight=3;rotatable=0;labelPosition=right;points=[];portConstraint=eastwest;strokeColor=inherit;" vertex="1" parent="VX4P6CgoQtY3rM74bWKP-1">
          <mxGeometry y="66.14285714285714" width="404" height="8" as="geometry" />
        </mxCell>
        <mxCell id="VX4P6CgoQtY3rM74bWKP-4" value="+handleRequest(req, res) : void" style="text;strokeColor=none;fillColor=none;align=left;verticalAlign=top;spacingLeft=4;spacingRight=4;overflow=hidden;rotatable=0;points=[[0,0.5],[1,0.5]];portConstraint=eastwest;" vertex="1" parent="VX4P6CgoQtY3rM74bWKP-1">
          <mxGeometry y="74.14285714285714" width="404" height="33" as="geometry" />
        </mxCell>
        <mxCell id="VX4P6CgoQtY3rM74bWKP-5" value="#handleGetSubjects(req, res) : void" style="text;strokeColor=none;fillColor=none;align=left;verticalAlign=top;spacingLeft=4;spacingRight=4;overflow=hidden;rotatable=0;points=[[0,0.5],[1,0.5]];portConstraint=eastwest;" vertex="1" parent="VX4P6CgoQtY3rM74bWKP-1">
          <mxGeometry y="107.14285714285714" width="404" height="33" as="geometry" />
        </mxCell>
        <mxCell id="VX4P6CgoQtY3rM74bWKP-6" value="#handlePostSubject(req, res) : void" style="text;strokeColor=none;fillColor=none;align=left;verticalAlign=top;spacingLeft=4;spacingRight=4;overflow=hidden;rotatable=0;points=[[0,0.5],[1,0.5]];portConstraint=eastwest;" vertex="1" parent="VX4P6CgoQtY3rM74bWKP-1">
          <mxGeometry y="140.14285714285714" width="404" height="33" as="geometry" />
        </mxCell>
        <mxCell id="VX4P6CgoQtY3rM74bWKP-7" value="#handleGetSubjectStudents(req, res) : void" style="text;strokeColor=none;fillColor=none;align=left;verticalAlign=top;spacingLeft=4;spacingRight=4;overflow=hidden;rotatable=0;points=[[0,0.5],[1,0.5]];portConstraint=eastwest;" vertex="1" parent="VX4P6CgoQtY3rM74bWKP-1">
          <mxGeometry y="173.14285714285714" width="404" height="33" as="geometry" />
        </mxCell>
        <mxCell id="VX4P6CgoQtY3rM74bWKP-8" value="#handlePostSubjectStudent(req, res) : void" style="text;strokeColor=none;fillColor=none;align=left;verticalAlign=top;spacingLeft=4;spacingRight=4;overflow=hidden;rotatable=0;points=[[0,0.5],[1,0.5]];portConstraint=eastwest;" vertex="1" parent="VX4P6CgoQtY3rM74bWKP-1">
          <mxGeometry y="206.14285714285714" width="404" height="33" as="geometry" />
        </mxCell>
        <mxCell id="VX4P6CgoQtY3rM74bWKP-9" value="SubjectService" style="swimlane;fontStyle=1;align=center;verticalAlign=top;childLayout=stackLayout;horizontal=1;startSize=33.142857142857146;horizontalStack=0;resizeParent=1;resizeParentMax=0;resizeLast=0;collapsible=0;marginBottom=0;" vertex="1" parent="1">
          <mxGeometry x="204" y="335" width="544" height="239.14285714285714" as="geometry" />
        </mxCell>
        <mxCell id="VX4P6CgoQtY3rM74bWKP-10" value="-subjectRepository: SubjectRepository" style="text;strokeColor=none;fillColor=none;align=left;verticalAlign=top;spacingLeft=4;spacingRight=4;overflow=hidden;rotatable=0;points=[[0,0.5],[1,0.5]];portConstraint=eastwest;" vertex="1" parent="VX4P6CgoQtY3rM74bWKP-9">
          <mxGeometry y="33.142857142857146" width="544" height="33" as="geometry" />
        </mxCell>
        <mxCell id="VX4P6CgoQtY3rM74bWKP-11" value="-enrollmentRepository: EnrollmentRepository" style="text;strokeColor=none;fillColor=none;align=left;verticalAlign=top;spacingLeft=4;spacingRight=4;overflow=hidden;rotatable=0;points=[[0,0.5],[1,0.5]];portConstraint=eastwest;" vertex="1" parent="VX4P6CgoQtY3rM74bWKP-9">
          <mxGeometry y="66.14285714285714" width="544" height="33" as="geometry" />
        </mxCell>
        <mxCell id="VX4P6CgoQtY3rM74bWKP-12" style="line;strokeWidth=1;fillColor=none;align=left;verticalAlign=middle;spacingTop=-1;spacingLeft=3;spacingRight=3;rotatable=0;labelPosition=right;points=[];portConstraint=eastwest;strokeColor=inherit;" vertex="1" parent="VX4P6CgoQtY3rM74bWKP-9">
          <mxGeometry y="99.14285714285714" width="544" height="8" as="geometry" />
        </mxCell>
        <mxCell id="VX4P6CgoQtY3rM74bWKP-13" value="+getAllSubjects() : Promise&lt;Array&lt;Subject&gt;&gt;" style="text;strokeColor=none;fillColor=none;align=left;verticalAlign=top;spacingLeft=4;spacingRight=4;overflow=hidden;rotatable=0;points=[[0,0.5],[1,0.5]];portConstraint=eastwest;" vertex="1" parent="VX4P6CgoQtY3rM74bWKP-9">
          <mxGeometry y="107.14285714285714" width="544" height="33" as="geometry" />
        </mxCell>
        <mxCell id="VX4P6CgoQtY3rM74bWKP-14" value="+createSubject(subjectData) : Promise&lt;Subject&gt;" style="text;strokeColor=none;fillColor=none;align=left;verticalAlign=top;spacingLeft=4;spacingRight=4;overflow=hidden;rotatable=0;points=[[0,0.5],[1,0.5]];portConstraint=eastwest;" vertex="1" parent="VX4P6CgoQtY3rM74bWKP-9">
          <mxGeometry y="140.14285714285714" width="544" height="33" as="geometry" />
        </mxCell>
        <mxCell id="VX4P6CgoQtY3rM74bWKP-15" value="+getStudentsBySubjectId(subjectId) : Promise&lt;Array&lt;Object&gt;&gt;" style="text;strokeColor=none;fillColor=none;align=left;verticalAlign=top;spacingLeft=4;spacingRight=4;overflow=hidden;rotatable=0;points=[[0,0.5],[1,0.5]];portConstraint=eastwest;" vertex="1" parent="VX4P6CgoQtY3rM74bWKP-9">
          <mxGeometry y="173.14285714285714" width="544" height="33" as="geometry" />
        </mxCell>
        <mxCell id="VX4P6CgoQtY3rM74bWKP-16" value="+addStudentToSubject(subjectId, studentId) : Promise&lt;Boolean&gt;" style="text;strokeColor=none;fillColor=none;align=left;verticalAlign=top;spacingLeft=4;spacingRight=4;overflow=hidden;rotatable=0;points=[[0,0.5],[1,0.5]];portConstraint=eastwest;" vertex="1" parent="VX4P6CgoQtY3rM74bWKP-9">
          <mxGeometry y="206.14285714285714" width="544" height="33" as="geometry" />
        </mxCell>
        <mxCell id="VX4P6CgoQtY3rM74bWKP-17" value="SubjectRepository" style="swimlane;fontStyle=1;align=center;verticalAlign=top;childLayout=stackLayout;horizontal=1;startSize=36.888888888888886;horizontalStack=0;resizeParent=1;resizeParentMax=0;resizeLast=0;collapsible=0;marginBottom=0;" vertex="1" parent="1">
          <mxGeometry x="20" y="650" width="385" height="155.88888888888889" as="geometry" />
        </mxCell>
        <mxCell id="VX4P6CgoQtY3rM74bWKP-18" style="line;strokeWidth=1;fillColor=none;align=left;verticalAlign=middle;spacingTop=-1;spacingLeft=3;spacingRight=3;rotatable=0;labelPosition=right;points=[];portConstraint=eastwest;strokeColor=inherit;" vertex="1" parent="VX4P6CgoQtY3rM74bWKP-17">
          <mxGeometry y="36.888888888888886" width="385" height="8" as="geometry" />
        </mxCell>
        <mxCell id="VX4P6CgoQtY3rM74bWKP-19" value="+findAll() : Promise&lt;Array&lt;Subject&gt;&gt;" style="text;strokeColor=none;fillColor=none;align=left;verticalAlign=top;spacingLeft=4;spacingRight=4;overflow=hidden;rotatable=0;points=[[0,0.5],[1,0.5]];portConstraint=eastwest;" vertex="1" parent="VX4P6CgoQtY3rM74bWKP-17">
          <mxGeometry y="44.888888888888886" width="385" height="37" as="geometry" />
        </mxCell>
        <mxCell id="VX4P6CgoQtY3rM74bWKP-20" value="+findById(id) : Promise&lt;Subject&gt;" style="text;strokeColor=none;fillColor=none;align=left;verticalAlign=top;spacingLeft=4;spacingRight=4;overflow=hidden;rotatable=0;points=[[0,0.5],[1,0.5]];portConstraint=eastwest;" vertex="1" parent="VX4P6CgoQtY3rM74bWKP-17">
          <mxGeometry y="81.88888888888889" width="385" height="37" as="geometry" />
        </mxCell>
        <mxCell id="VX4P6CgoQtY3rM74bWKP-21" value="+insert(subjectData) : Promise&lt;Number&gt;" style="text;strokeColor=none;fillColor=none;align=left;verticalAlign=top;spacingLeft=4;spacingRight=4;overflow=hidden;rotatable=0;points=[[0,0.5],[1,0.5]];portConstraint=eastwest;" vertex="1" parent="VX4P6CgoQtY3rM74bWKP-17">
          <mxGeometry y="118.88888888888889" width="385" height="37" as="geometry" />
        </mxCell>
        <mxCell id="VX4P6CgoQtY3rM74bWKP-22" value="EnrollmentRepository" style="swimlane;fontStyle=1;align=center;verticalAlign=top;childLayout=stackLayout;horizontal=1;startSize=36.888888888888886;horizontalStack=0;resizeParent=1;resizeParentMax=0;resizeLast=0;collapsible=0;marginBottom=0;" vertex="1" parent="1">
          <mxGeometry x="455" y="650" width="569" height="155.88888888888889" as="geometry" />
        </mxCell>
        <mxCell id="VX4P6CgoQtY3rM74bWKP-23" style="line;strokeWidth=1;fillColor=none;align=left;verticalAlign=middle;spacingTop=-1;spacingLeft=3;spacingRight=3;rotatable=0;labelPosition=right;points=[];portConstraint=eastwest;strokeColor=inherit;" vertex="1" parent="VX4P6CgoQtY3rM74bWKP-22">
          <mxGeometry y="36.888888888888886" width="569" height="8" as="geometry" />
        </mxCell>
        <mxCell id="VX4P6CgoQtY3rM74bWKP-24" value="+findStudentsBySubjectId(subjectId) : Promise&lt;Array&lt;Object&gt;&gt;" style="text;strokeColor=none;fillColor=none;align=left;verticalAlign=top;spacingLeft=4;spacingRight=4;overflow=hidden;rotatable=0;points=[[0,0.5],[1,0.5]];portConstraint=eastwest;" vertex="1" parent="VX4P6CgoQtY3rM74bWKP-22">
          <mxGeometry y="44.888888888888886" width="569" height="37" as="geometry" />
        </mxCell>
        <mxCell id="VX4P6CgoQtY3rM74bWKP-25" value="+addStudentToSubject(subjectId, studentId) : Promise&lt;Boolean&gt;" style="text;strokeColor=none;fillColor=none;align=left;verticalAlign=top;spacingLeft=4;spacingRight=4;overflow=hidden;rotatable=0;points=[[0,0.5],[1,0.5]];portConstraint=eastwest;" vertex="1" parent="VX4P6CgoQtY3rM74bWKP-22">
          <mxGeometry y="81.88888888888889" width="569" height="37" as="geometry" />
        </mxCell>
        <mxCell id="VX4P6CgoQtY3rM74bWKP-26" value="+isStudentEnrolled(subjectId, studentId) : Promise&lt;Boolean&gt;" style="text;strokeColor=none;fillColor=none;align=left;verticalAlign=top;spacingLeft=4;spacingRight=4;overflow=hidden;rotatable=0;points=[[0,0.5],[1,0.5]];portConstraint=eastwest;" vertex="1" parent="VX4P6CgoQtY3rM74bWKP-22">
          <mxGeometry y="118.88888888888889" width="569" height="37" as="geometry" />
        </mxCell>
        <mxCell id="VX4P6CgoQtY3rM74bWKP-27" value="Subject" style="swimlane;fontStyle=1;align=center;verticalAlign=top;childLayout=stackLayout;horizontal=1;startSize=34.666666666666664;horizontalStack=0;resizeParent=1;resizeParentMax=0;resizeLast=0;collapsible=0;marginBottom=0;" vertex="1" parent="1">
          <mxGeometry x="117" y="898" width="192" height="217.66666666666666" as="geometry" />
        </mxCell>
        <mxCell id="VX4P6CgoQtY3rM74bWKP-28" value="-id: Number" style="text;strokeColor=none;fillColor=none;align=left;verticalAlign=top;spacingLeft=4;spacingRight=4;overflow=hidden;rotatable=0;points=[[0,0.5],[1,0.5]];portConstraint=eastwest;" vertex="1" parent="VX4P6CgoQtY3rM74bWKP-27">
          <mxGeometry y="34.666666666666664" width="192" height="35" as="geometry" />
        </mxCell>
        <mxCell id="VX4P6CgoQtY3rM74bWKP-29" value="-code: String" style="text;strokeColor=none;fillColor=none;align=left;verticalAlign=top;spacingLeft=4;spacingRight=4;overflow=hidden;rotatable=0;points=[[0,0.5],[1,0.5]];portConstraint=eastwest;" vertex="1" parent="VX4P6CgoQtY3rM74bWKP-27">
          <mxGeometry y="69.66666666666666" width="192" height="35" as="geometry" />
        </mxCell>
        <mxCell id="VX4P6CgoQtY3rM74bWKP-30" value="-name: String" style="text;strokeColor=none;fillColor=none;align=left;verticalAlign=top;spacingLeft=4;spacingRight=4;overflow=hidden;rotatable=0;points=[[0,0.5],[1,0.5]];portConstraint=eastwest;" vertex="1" parent="VX4P6CgoQtY3rM74bWKP-27">
          <mxGeometry y="104.66666666666666" width="192" height="35" as="geometry" />
        </mxCell>
        <mxCell id="VX4P6CgoQtY3rM74bWKP-31" value="-description: String" style="text;strokeColor=none;fillColor=none;align=left;verticalAlign=top;spacingLeft=4;spacingRight=4;overflow=hidden;rotatable=0;points=[[0,0.5],[1,0.5]];portConstraint=eastwest;" vertex="1" parent="VX4P6CgoQtY3rM74bWKP-27">
          <mxGeometry y="139.66666666666666" width="192" height="35" as="geometry" />
        </mxCell>
        <mxCell id="VX4P6CgoQtY3rM74bWKP-32" style="line;strokeWidth=1;fillColor=none;align=left;verticalAlign=middle;spacingTop=-1;spacingLeft=3;spacingRight=3;rotatable=0;labelPosition=right;points=[];portConstraint=eastwest;strokeColor=inherit;" vertex="1" parent="VX4P6CgoQtY3rM74bWKP-27">
          <mxGeometry y="174.66666666666666" width="192" height="8" as="geometry" />
        </mxCell>
        <mxCell id="VX4P6CgoQtY3rM74bWKP-33" value="+constructor(data)" style="text;strokeColor=none;fillColor=none;align=left;verticalAlign=top;spacingLeft=4;spacingRight=4;overflow=hidden;rotatable=0;points=[[0,0.5],[1,0.5]];portConstraint=eastwest;" vertex="1" parent="VX4P6CgoQtY3rM74bWKP-27">
          <mxGeometry y="182.66666666666666" width="192" height="35" as="geometry" />
        </mxCell>
        <mxCell id="VX4P6CgoQtY3rM74bWKP-34" value="depends on" style="curved=1;startArrow=none;endArrow=open;endSize=12;exitX=0.5;exitY=1;entryX=0.5;entryY=0;rounded=0;" edge="1" parent="1" source="VX4P6CgoQtY3rM74bWKP-1" target="VX4P6CgoQtY3rM74bWKP-9">
          <mxGeometry relative="1" as="geometry">
            <Array as="points" />
          </mxGeometry>
        </mxCell>
        <mxCell id="VX4P6CgoQtY3rM74bWKP-35" value="depends on" style="curved=1;startArrow=none;endArrow=open;endSize=12;exitX=0.13;exitY=1;entryX=0.5;entryY=0;rounded=0;" edge="1" parent="1" source="VX4P6CgoQtY3rM74bWKP-9" target="VX4P6CgoQtY3rM74bWKP-17">
          <mxGeometry relative="1" as="geometry">
            <Array as="points">
              <mxPoint x="212" y="612" />
            </Array>
          </mxGeometry>
        </mxCell>
        <mxCell id="VX4P6CgoQtY3rM74bWKP-36" value="depends on" style="curved=1;startArrow=none;endArrow=open;endSize=12;exitX=0.87;exitY=1;entryX=0.5;entryY=0;rounded=0;" edge="1" parent="1" source="VX4P6CgoQtY3rM74bWKP-9" target="VX4P6CgoQtY3rM74bWKP-22">
          <mxGeometry relative="1" as="geometry">
            <Array as="points">
              <mxPoint x="739" y="612" />
            </Array>
          </mxGeometry>
        </mxCell>
        <mxCell id="VX4P6CgoQtY3rM74bWKP-37" value="creates/returns" style="curved=1;startArrow=none;endArrow=open;endSize=12;exitX=0.5;exitY=1;entryX=0.5;entryY=0;rounded=0;" edge="1" parent="1" source="VX4P6CgoQtY3rM74bWKP-17" target="VX4P6CgoQtY3rM74bWKP-27">
          <mxGeometry relative="1" as="geometry">
            <Array as="points" />
          </mxGeometry>
        </mxCell>
      </root>
    </mxGraphModel>
  </diagram>
</mxfile>
